<?xml version="1.0" encoding="UTF-8"?>
<svg xmlns="http://www.w3.org/2000/svg" version="1.1" viewBox="0 0 328.7 78.8">
  <!-- Generator: Adobe Illustrator 29.5.1, SVG Export Plug-In . SVG Version: 2.1.0 Build 141)  -->
  <defs>
    <style>
      .st0 {
        isolation: isolate;
      }

      .st1 {
        fill: #6FF9BF;
      }

      .st2 {
        fill: #4bddd2;
        mix-blend-mode: lighten;
        opacity: .5;
      }

      .st3 {
        fill: #008277; /* darker */
      }

      .st4 {
        fill: #1A1A1A;
      }

	.st5 {
		fill: #6FF9BF;/*brighter*/
	}
	.st6 {
		fill: #25AF91 /*middle*/
	}
    </style>
  </defs>
  <g class="st0">
    <g id="Camada_1">
      <path class="st4" d="M102.4,7.7h9.1v42.1h20.4v7.6h-29.5V7.7Z"/>
      <path class="st4" d="M158.1,57.5l-.6-4h-.2c-2.2,2.8-6,4.8-10.6,4.8-7.2,0-11.3-5.2-11.3-10.7,0-9.1,8-13.6,21.3-13.6v-.6c0-2.4-1-6.3-7.3-6.3s-7.2,1.1-9.7,2.7l-1.8-5.9c2.7-1.6,7.3-3.2,13-3.2,11.5,0,14.8,7.3,14.8,15.1v13c0,3.2.1,6.4.5,8.6h-8.2ZM156.9,39.9c-6.4-.1-12.5,1.3-12.5,6.7s2.3,5.2,5.2,5.2,6.3-2.4,7.1-4.9c.2-.7.3-1.4.3-2v-4.9Z"/>
      <path class="st4" d="M173.6,32.2c0-4.1,0-7.6-.3-10.7h8l.4,5.4h.2c1.5-2.8,5.5-6.2,11.4-6.2s12.8,4.1,12.8,15.4v21.3h-9.1v-20.3c0-5.2-1.9-9.1-6.9-9.1s-6.1,2.6-7.1,5.3c-.3.8-.4,1.9-.4,3v21.1h-9.1v-25.2Z"/>
      <path class="st4" d="M247.3,5.1v42.3c0,3.7.1,7.7.3,10.1h-8.1l-.4-5.7h-.1c-2.1,4-6.5,6.5-11.7,6.5-8.6,0-15.3-7.3-15.3-18.4,0-12,7.4-19.2,16.1-19.2s8.5,2.1,10.1,4.7h.1V5.1h9.1ZM238.2,36.5c0-.7,0-1.6-.2-2.4-.8-3.5-3.7-6.4-7.8-6.4s-9.1,5.2-9.1,11.9,3.2,11.4,9,11.4,6.9-2.5,7.8-6.4c.2-.8.3-1.7.3-2.7v-5.4Z"/>
      <g>
        <path class="st4" d="M252,52.2l13.5-17.3c1.8-2.2,3.4-4,5.3-6h0c0-.1-17.5-.1-17.5-.1v-7.2h28.5v5.5l-13.2,16.9c-1.8,2.1-3.5,4.2-5.3,6.1h0c0,.1,19,.1,19,.1v7.2h-30.3v-5.2Z"/>
        <path class="st4" d="M294.5,21.5l6.5,19.3c.7,2.2,1.5,4.9,2,7h.2c.6-2.1,1.3-4.7,1.9-7.1l5.6-19.2h9.7l-9,24.5c-4.9,13.4-8.3,19.4-12.5,23.1-3.5,3.2-7.2,4.4-9.5,4.6l-2.1-7.7c1.5-.4,3.5-1.2,5.3-2.5,1.7-1.1,3.7-3.2,4.9-5.7.4-.7.6-1.2.6-1.6s0-.9-.5-1.8l-13.1-33h10Z"/>
      </g>
      <path class="st1" d="M28.7,12l-19.2,31.9c-3.6,5.9.7,13.4,7.6,13.4h57.9c-2.1-.3-3.2-.6-4.9-1.9-3.2-2.5-5.2-6.8-7.5-10.7L43.9,12.1c-3.4-5.8-11.8-5.9-15.2-.1Z"/>
      <path class="st3" d="M49.4,12l-19.2,31.9c-3.6,5.9.7,13.4,7.6,13.4h37.9c6.8,0,11.1-7.4,7.6-13.3l-18.7-31.9c-3.4-5.8-11.8-5.9-15.2-.1Z"/>
      <path class="st2" d="M28.7,12l-19.2,31.9c-3.6,5.9.7,13.4,7.6,13.4h58.3c-1.2,0-3.3-.3-5.2-1.7-3.2-2.4-5.5-7.1-7.6-10.8L43.9,12.1c-3.4-5.8-11.8-5.9-15.2-.1Z"/>
      <path class="st5" d="M28.7,12l-19.2,31.9c-3.6,5.9.7,13.4,7.6,13.4h57.6c-6.2-.5-9-7.2-12.4-13.1L43.9,12.1c-3.4-5.8-11.7-5.9-15.2-.1Z"/>
      <path class="st6" d="M61.4,42.9l-14.9-26.3-16.4,27.3c-3.6,5.9.7,13.4,7.6,13.4h37c-6.2-.6-9.7-8.5-13.2-14.4Z"/>
    </g>
  </g>
</svg>